<?xml version="1.0" standalone="no"?><!DOCTYPE svg PUBLIC "-//W3C//DTD SVG 1.1//EN" "http://www.w3.org/Graphics/SVG/1.1/DTD/svg11.dtd"><svg class="icon" width="64px" height="64.00px" viewBox="0 0 1024 1024" version="1.1" xmlns="http://www.w3.org/2000/svg"><path d="M511.006 512.922m-447.672 0a447.672 447.672 0 1 0 895.344 0 447.672 447.672 0 1 0-895.344 0Z" fill="#C75C5C" /><path d="M762.57 498.971c-1.322-77.244-63.993-146.085-141.394-146.085-44.76 0-84.201 23.419-110.169 57.792-25.968-34.373-65.409-57.792-110.169-57.792-77.402 0-140.072 68.84-141.395 146.085h-0.252c0 0.472 0.094 0.913 0.094 1.385 0 0.346-0.094 0.693-0.094 1.07 0 2.172 0.535 3.809 0.63 5.886 6.925 196.857 249.203 277.564 249.203 277.564s245.835-80.612 253.106-277.249c0.126-2.203 0.692-3.935 0.692-6.201 0-0.378-0.094-0.724-0.094-1.07 0-0.504 0.094-0.913 0.094-1.385h-0.252z" fill="#231F20" /><path d="M762.57 470.991c-1.322-77.244-63.993-146.085-141.394-146.085-44.76 0-84.201 23.419-110.169 57.792-25.968-34.373-65.409-57.792-110.169-57.792-77.402 0-140.072 68.84-141.395 146.085h-0.252c0 0.472 0.094 0.913 0.094 1.385 0 0.346-0.094 0.693-0.094 1.07 0 2.172 0.535 3.809 0.63 5.886 6.925 196.857 249.203 277.564 249.203 277.564s245.835-80.612 253.106-277.249c0.126-2.203 0.692-3.935 0.692-6.201 0-0.378-0.094-0.724-0.094-1.07 0-0.504 0.094-0.913 0.094-1.385h-0.252z" fill="#FFFFFF" /></svg>