<?xml version="1.0" standalone="no"?><!DOCTYPE svg PUBLIC "-//W3C//DTD SVG 1.1//EN" "http://www.w3.org/Graphics/SVG/1.1/DTD/svg11.dtd"><svg class="icon" width="64px" height="64.00px" viewBox="0 0 1024 1024" version="1.1" xmlns="http://www.w3.org/2000/svg"><path d="M508.981 515.731m-448.982 0a448.982 448.982 0 1 0 897.964 0 448.982 448.982 0 1 0-897.964 0Z" fill="#76C2AF" /><path d="M426.123 582.193c7.892-22.8 22.8-60.507 1.754-133.291s-51.738-101.233-93.83-101.233c0 0-72.296-3.977-77.169 110.88-5.387 126.966 39.163 158.139 53.137 230.764l105.578-30.165c-3.758-31.377 5.03-61.068 10.53-76.955zM428.491 699.241l-113.948 32.556c5.903 74.673 42.251 134.655 104.565 117.813 64.892-17.538 35.237-105.709 9.806-149.555-0.156-0.268-0.27-0.544-0.423-0.814z" fill="#4F5D73" /><path d="M591.839 469.803c-7.892-22.8-22.8-60.507-1.754-133.291s51.738-101.233 93.83-101.233c0 0 72.296-3.977 77.169 110.88 5.387 126.966-39.163 158.139-53.137 230.764l-105.578-30.165c3.757-31.376-5.031-61.067-10.53-76.955zM589.471 586.851l113.948 32.556c-5.903 74.673-42.251 134.655-104.565 117.813-64.892-17.538-35.237-105.709-9.806-149.555 0.156-0.267 0.269-0.544 0.423-0.814z" fill="#4F5D73" /></svg>