<?xml version="1.0" standalone="no"?><!DOCTYPE svg PUBLIC "-//W3C//DTD SVG 1.1//EN" "http://www.w3.org/Graphics/SVG/1.1/DTD/svg11.dtd"><svg class="icon" width="64px" height="64.00px" viewBox="0 0 1024 1024" version="1.1" xmlns="http://www.w3.org/2000/svg"><path d="M512.338 511.486m-448.88 0a448.88 448.88 0 1 0 897.76 0 448.88 448.88 0 1 0-897.76 0Z" fill="#E0995E" /><path d="M822.114 360.69c-12.37-21.439-41.199-46.987-108.247-46.987-23.043 0-48.69 3.158-75.947 9.065-27.873-86.723-72.881-140.929-125.582-140.929s-97.71 54.206-125.582 140.929c-27.256-5.908-52.904-9.065-75.947-9.065-67.048 0-95.877 25.548-108.247 46.987-26.302 45.559-1.991 111.484 58.928 178.851-60.919 67.367-85.231 133.292-58.928 178.851 12.37 21.438 41.199 46.987 108.247 46.987 23.043 0 48.69-3.158 75.947-9.065 27.873 86.723 72.881 140.929 125.582 140.929s97.71-54.206 125.582-140.929c27.256 5.908 52.904 9.065 75.947 9.065 67.048 0 95.877-25.548 108.247-46.987 26.302-45.559 1.991-111.484-58.928-178.851 60.918-67.367 85.23-133.292 58.928-178.851z m-108.248-4.904c36.644 0 62.144 9.206 71.809 25.945 15.039 26.052-4.17 74.076-52.204 127.614-20.522-19.329-43.886-38.536-69.762-57.192-3.206-31.61-8.131-61.336-14.571-88.684 23.239-4.87 45.161-7.683 64.728-7.683z m-144.72 282.152c-18.867 10.894-37.876 20.634-56.809 29.651-18.932-9.017-37.942-18.757-56.809-29.651a823.88 823.88 0 0 1-54.309-34.25 823.722 823.722 0 0 1-2.507-64.148c0-22.25 0.906-43.637 2.507-64.148a823.617 823.617 0 0 1 54.309-34.25c18.867-10.894 37.876-20.634 56.809-29.651 18.932 9.017 37.942 18.757 56.809 29.651a823.88 823.88 0 0 1 54.309 34.25 823.722 823.722 0 0 1 2.507 64.148c0 22.25-0.906 43.637-2.507 64.148a823.463 823.463 0 0 1-54.309 34.25z m47.954 20.233c-2.545 16.469-5.575 32.082-9.036 46.833-14.83-4.466-29.924-9.5-45.376-15.49 9.195-4.867 18.375-9.87 27.499-15.137 9.201-5.312 18.14-10.729 26.913-16.206z m-155.113 31.343c-15.452 5.99-30.546 11.024-45.376 15.49-3.461-14.75-6.491-30.363-9.036-46.833 8.773 5.476 17.712 10.894 26.913 16.206 9.124 5.267 18.304 10.271 27.499 15.137zM357.212 570.943c-13.058-10.492-25.118-20.978-36.21-31.403 11.092-10.425 23.152-20.911 36.21-31.403-0.357 10.334-0.581 20.783-0.581 31.403s0.224 21.069 0.581 31.403z m50.363-150.033c2.545-16.469 5.575-32.082 9.036-46.833 14.83 4.466 29.924 9.5 45.376 15.49-9.195 4.866-18.375 9.87-27.499 15.137-9.201 5.312-18.14 10.729-26.913 16.206z m155.113-31.343c15.452-5.99 30.546-11.024 45.376-15.49 3.461 14.752 6.491 30.363 9.036 46.833-8.773-5.476-17.712-10.894-26.913-16.206-9.124-5.267-18.304-10.271-27.499-15.137z m104.776 118.571c13.058 10.492 25.118 20.978 36.21 31.403-11.092 10.425-23.152 20.911-36.21 31.403 0.357-10.334 0.581-20.783 0.581-31.403s-0.224-21.069-0.581-31.403zM512.338 223.922c30.149 0 62.223 40.82 84.581 109.48-27.392 8.202-55.848 18.822-84.581 31.613-28.733-12.791-57.189-23.411-84.581-31.613 22.358-68.66 54.431-109.48 84.581-109.48zM239 381.731c9.664-16.74 35.165-25.945 71.809-25.945 19.568 0 41.489 2.813 64.729 7.683-6.44 27.348-11.366 57.074-14.571 88.684-25.876 18.656-49.24 37.863-69.762 57.192-48.034-53.538-67.243-101.562-52.205-127.614z m71.809 341.564c-36.644 0-62.144-9.206-71.809-25.945-15.039-26.052 4.17-74.076 52.204-127.614 20.522 19.329 43.886 38.536 69.762 57.192 3.206 31.61 8.131 61.336 14.571 88.684-23.239 4.87-45.16 7.683-64.728 7.683z m201.529 131.864c-30.149 0-62.223-40.82-84.581-109.48 27.392-8.202 55.848-18.822 84.581-31.613 28.733 12.791 57.189 23.411 84.581 31.613-22.358 68.66-54.432 109.48-84.581 109.48zM785.675 697.35c-9.664 16.74-35.165 25.945-71.809 25.945-19.568 0-41.489-2.813-64.729-7.683 6.44-27.348 11.366-57.074 14.571-88.684 25.876-18.656 49.24-37.863 69.762-57.192 48.035 53.538 67.244 101.562 52.205 127.614z" fill="#231F20" /><path d="M512.338 539.541m-42.082 0a42.082 42.082 0 1 0 84.164 0 42.082 42.082 0 1 0-84.164 0Z" fill="#231F20" /><path d="M512.338 869.187c-88.768 0-155.707-153.782-155.707-357.701s66.939-357.701 155.707-357.701 155.707 153.782 155.707 357.701-66.94 357.701-155.707 357.701z m0-673.32c-53.74 0-113.624 129.617-113.624 315.619s59.884 315.619 113.624 315.619 113.624-129.617 113.624-315.619-59.884-315.619-113.624-315.619z" fill="#FFFFFF" /><path d="M310.809 737.323c-67.048 0-95.877-25.548-108.247-46.987-44.384-76.877 55.322-211.741 231.926-313.687 98.692-56.987 203.132-91.001 279.379-91.001 67.048 0 95.877 25.548 108.247 46.987 44.384 76.877-55.322 211.741-231.926 313.687-98.693 56.987-203.132 91.001-279.379 91.001z m403.057-409.592c-69.185 0-165.761 31.904-258.337 85.357-161.083 93-243.399 209.659-216.529 256.207 9.664 16.74 35.165 25.945 71.809 25.945 69.185 0 165.761-31.904 258.337-85.357 161.083-93.001 243.399-209.659 216.529-256.207-9.664-16.74-35.165-25.945-71.809-25.945z" fill="#FFFFFF" /><path d="M310.809 737.323c-67.048 0-95.877-25.548-108.247-46.987-44.384-76.877 55.322-211.741 231.926-313.687 98.692-56.987 203.132-91.001 279.379-91.001 67.048 0 95.877 25.548 108.247 46.987 44.384 76.877-55.322 211.741-231.926 313.687-98.693 56.987-203.132 91.001-279.379 91.001z m403.057-409.592c-69.185 0-165.761 31.904-258.337 85.357-161.083 93-243.399 209.659-216.529 256.207 9.664 16.74 35.165 25.945 71.809 25.945 69.185 0 165.761-31.904 258.337-85.357 161.083-93.001 243.399-209.659 216.529-256.207-9.664-16.74-35.165-25.945-71.809-25.945z" fill="#FFFFFF" /><path d="M713.866 737.323c-76.247 0-180.686-34.014-279.379-91.001-176.604-101.946-276.31-236.81-231.926-313.687 12.37-21.439 41.199-46.987 108.247-46.987 76.247 0 180.686 34.014 279.379 91.001 176.604 101.946 276.31 236.81 231.926 313.687-12.369 21.439-41.198 46.987-108.247 46.987zM310.809 327.731c-36.644 0-62.144 9.206-71.809 25.945-26.87 46.548 55.446 163.207 216.529 256.207 92.576 53.452 189.152 85.357 258.337 85.357 36.644 0 62.144-9.206 71.809-25.945 26.87-46.548-55.446-163.207-216.529-256.207-92.576-53.453-189.152-85.357-258.337-85.357z" fill="#FFFFFF" /><path d="M512.338 511.486m-42.082 0a42.082 42.082 0 1 0 84.164 0 42.082 42.082 0 1 0-84.164 0Z" fill="#FFFFFF" /></svg>