<?xml version="1.0" standalone="no"?><!DOCTYPE svg PUBLIC "-//W3C//DTD SVG 1.1//EN" "http://www.w3.org/Graphics/SVG/1.1/DTD/svg11.dtd"><svg t="1504095849963" class="icon" style="" viewBox="0 0 1024 1024" version="1.1" xmlns="http://www.w3.org/2000/svg" p-id="1870" xmlns:xlink="http://www.w3.org/1999/xlink" width="64" height="64"><defs><style type="text/css"></style></defs><path d="M513.044 511.932m-449.172 0a449.172 449.172 0 1 0 898.344 0 449.172 449.172 0 1 0-898.344 0Z" fill="#E0995E" p-id="1871"></path><path d="M737.631 799.683c-8.979 0-17.964-3.427-24.811-10.281l-168.44-168.44c-13.708-13.708-13.708-35.914 0-49.622 13.694-13.708 35.928-13.708 49.622 0l168.44 168.44c13.708 13.708 13.708 35.914 0 49.622-6.848 6.854-15.833 10.281-24.811 10.281z" fill="#231F20" p-id="1872"></path><path d="M737.631 771.61c-8.979 0-17.964-3.427-24.811-10.281l-168.44-168.44c-13.708-13.708-13.708-35.914 0-49.622 13.694-13.708 35.928-13.708 49.622 0l168.44 168.44c13.708 13.708 13.708 35.914 0 49.622-6.848 6.854-15.833 10.281-24.811 10.281z" fill="#4F5D73" p-id="1873"></path><path d="M462.316 461.203m-148.325 0a148.325 148.325 0 1 0 296.65 0 148.325 148.325 0 1 0-296.65 0Z" fill="#77B3D4" p-id="1874"></path><path d="M462.316 340.951c37.96 0 75.92 14.481 104.882 43.444 57.925 57.925 57.925 151.839 0 209.764-28.962 28.962-66.922 43.444-104.882 43.444s-75.92-14.481-104.882-43.444c-57.925-57.925-57.925-151.839 0-209.764 28.962-28.963 66.922-43.444 104.882-43.444z m0-56.147c-54.617 0-105.964 21.269-144.584 59.889-79.723 79.723-79.723 209.443 0 289.167 38.62 38.62 89.967 59.889 144.584 59.889S568.28 672.48 606.899 633.86c79.724-79.724 79.724-209.443 0-289.167-38.619-38.62-89.967-59.889-144.583-59.889z" fill="#231F20" p-id="1875"></path><path d="M462.316 312.878c37.96 0 75.92 14.481 104.882 43.444 57.925 57.925 57.925 151.839 0 209.764-28.962 28.962-66.922 43.444-104.882 43.444s-75.92-14.481-104.882-43.444c-57.925-57.925-57.925-151.839 0-209.764 28.962-28.963 66.922-43.444 104.882-43.444m0-56.147c-54.617 0-105.964 21.269-144.584 59.889-79.723 79.723-79.723 209.443 0 289.167 38.62 38.62 89.967 59.889 144.584 59.889s105.964-21.269 144.583-59.889c79.724-79.724 79.724-209.443 0-289.167-38.619-38.62-89.967-59.889-144.583-59.889z" fill="#FFFFFF" p-id="1876"></path></svg>